<?xml version="1.0" standalone="no"?><!DOCTYPE svg PUBLIC "-//W3C//DTD SVG 1.1//EN" "http://www.w3.org/Graphics/SVG/1.1/DTD/svg11.dtd"><svg t="1713956198182" class="icon" viewBox="0 0 1024 1024" version="1.1" xmlns="http://www.w3.org/2000/svg" p-id="1312" xmlns:xlink="http://www.w3.org/1999/xlink" width="512" height="512"><path d="M869.262222 200.817778L680.96 12.515556A42.666667 42.666667 0 0 0 650.808889 0H184.888889a42.666667 42.666667 0 0 0-42.666667 42.666667v938.666666a42.666667 42.666667 0 0 0 42.666667 42.666667h654.222222a42.666667 42.666667 0 0 0 42.666667-42.666667V230.968889a42.666667 42.666667 0 0 0-12.515556-30.151111zM664.32 593.208889l-85.333333 85.333333a14.222222 14.222222 0 0 1-20.195556 0 14.222222 14.222222 0 0 1 0-20.195555l61.155556-61.013334H355.555556a14.222222 14.222222 0 0 1 0-28.444444h298.666666a14.222222 14.222222 0 0 1 13.084445 8.817778 14.222222 14.222222 0 0 1-2.986667 15.502222zM654.222222 504.888889H355.555556a14.222222 14.222222 0 0 1-13.084445-8.817778 14.222222 14.222222 0 0 1 2.986667-15.502222l85.333333-85.333333a14.222222 14.222222 0 0 1 20.195556 20.195555l-61.155556 61.013333H654.222222a14.222222 14.222222 0 0 1 0 28.444445z" fill="#ffc661" p-id="1313"></path><path d="M654.222222 213.333333V0h-28.444444v213.333333a42.666667 42.666667 0 0 0 42.666666 42.666667h213.333334v-28.444444H668.444444a14.222222 14.222222 0 0 1-14.222222-14.222223z" fill="#ffc661" p-id="1314"></path></svg>