<?xml version="1.0" standalone="no"?><!DOCTYPE svg PUBLIC "-//W3C//DTD SVG 1.1//EN" "http://www.w3.org/Graphics/SVG/1.1/DTD/svg11.dtd"><svg t="1714281753372" class="icon" viewBox="0 0 1024 1024" version="1.1" xmlns="http://www.w3.org/2000/svg" p-id="1807" xmlns:xlink="http://www.w3.org/1999/xlink" width="512" height="512"><path d="M921.6 904.533333H102.4c-58.026667 0-102.4-44.373333-102.4-102.4v-512c0-58.026667 44.373333-102.4 102.4-102.4h153.6c44.373333 0 81.92 27.306667 95.573333 71.68v3.413334l3.413334 17.066666c10.24 27.306667 34.133333 44.373333 64.853333 44.373334H921.6c58.026667 0 102.4 44.373333 102.4 102.4v375.466666c0 58.026667-44.373333 102.4-102.4 102.4zM102.4 221.866667c-37.546667 0-68.266667 30.72-68.266667 68.266666v512c0 37.546667 30.72 68.266667 68.266667 68.266667h819.2c37.546667 0 68.266667-30.72 68.266667-68.266667v-375.466666c0-37.546667-30.72-68.266667-68.266667-68.266667H419.84c-44.373333 0-81.92-27.306667-95.573333-71.68v-3.413333l-3.413334-17.066667C310.613333 238.933333 283.306667 221.866667 256 221.866667H102.4z" fill="#979797" p-id="1808"></path><path d="M972.8 375.466667c-10.24 0-17.066667-6.826667-17.066667-17.066667v-136.533333c0-37.546667-30.72-68.266667-68.266666-68.266667H136.533333c-37.546667 0-68.266667 30.72-68.266666 68.266667 0 10.24-6.826667 17.066667-17.066667 17.066666S34.133333 232.106667 34.133333 221.866667c0-58.026667 44.373333-102.4 102.4-102.4h750.933334c58.026667 0 102.4 44.373333 102.4 102.4v136.533333c0 10.24-6.826667 17.066667-17.066667 17.066667z" fill="#979797" p-id="1809"></path></svg>